<?xml version="1.0" encoding="UTF-8"?>
<!DOCTYPE svg PUBLIC "-//W3C//DTD SVG 1.1//EN" "http://www.w3.org/Graphics/SVG/1.1/DTD/svg11.dtd">
<!-- Creator: CorelDRAW 2018 (64-Bit) -->
<svg xmlns="http://www.w3.org/2000/svg" xml:space="preserve" width="58.966mm" height="22.4612mm" version="1.1" style="shape-rendering:geometricPrecision; text-rendering:geometricPrecision; image-rendering:optimizeQuality; fill-rule:evenodd; clip-rule:evenodd"
viewBox="0 0 3802.16 1448.31"
 xmlns:xlink="http://www.w3.org/1999/xlink">
 <defs>
  <style type="text/css">
   <![CDATA[
    .fil0 {fill:#FEFEFE}
    .fil1 {fill:#FEFEFE;fill-rule:nonzero}
   ]]>
  </style>
 </defs>
 <g id="Layer_x0020_1">
  <metadata id="CorelCorpID_0Corel-Layer"/>
  <path class="fil0" d="M1.21 490.95c10.41,28.88 77.19,54.45 107.39,64.47 119.12,39.51 230.77,58.77 358.23,73.84l218.03 22c55.07,4.06 254.5,21.52 291.22,9.21 -4.85,16.45 -13.17,14.62 -43.21,36.77 -17.49,12.9 -29.28,21.19 -47.93,34.56 -34.43,24.66 -66.67,46.97 -99.85,70.61 -81.08,57.73 -207.92,148.38 -275.4,216.44 -141.21,142.44 15.08,146.94 183.47,86.26 104.43,-37.64 125.57,-54.76 212.68,-94.79l195.87 -102.7c-4.08,16.37 -14.61,27.38 -22.17,43.31 -26.9,56.71 -50.37,136.09 -62.71,198.88 -3.96,20.11 -5.65,32.23 -8.14,53.27 -4.34,36.72 -9.98,77.94 5.16,119.97 42.36,117.55 275.42,-226.44 299.93,-265.36l62.22 -108.44c17.84,-38.68 35.47,-60.74 54.43,-108.75 4.86,-12.29 4.34,-16.04 10.12,-28.82 41.15,-90.94 91.73,-255.99 56.84,-352.79 -26.82,-74.42 -142.46,-103.43 -210.34,-116.95 -27.81,-5.54 -56.12,-11.48 -83.78,-14.66 -56.01,-6.45 -112.85,-10.36 -172.21,-12.32 -98.01,-3.24 -257.45,-1.28 -360.08,8.68 -148.51,14.42 -219.77,19.06 -378.57,47.99 -10.57,1.93 -313.86,56.43 -291.19,119.33z"/>
  <path class="fil1" d="M1618.96 1448.31c66.16,0 116.22,-10.73 153.77,-30.4l57.21 -236.02 362.97 0 57.21 236.02c37.55,19.67 89.4,30.4 155.56,30.4 62.58,0 112.65,-10.73 150.2,-30.4l-343.31 -1196.2c-59.01,-19.67 -126.95,-30.4 -202.05,-30.4 -69.73,0 -135.89,10.73 -196.68,30.4l-343.31 1196.2c37.55,19.67 85.82,30.4 148.41,30.4zm391.58 -1033.49l3.58 0 134.1 554.29 -271.78 0 134.1 -554.29zm910.12 1033.49c69.74,0 130.53,-12.52 182.38,-37.55l282.51 -899.39c-33.97,-19.67 -82.25,-28.6 -143.04,-28.6 -69.74,0 -119.8,8.94 -150.19,28.6l-166.29 691.97 -3.58 0 -166.29 -691.97c-33.97,-19.67 -84.04,-28.6 -151.98,-28.6 -64.37,0 -114.43,8.94 -148.41,28.6l287.87 899.39c50.07,25.03 109.07,37.55 177.02,37.55zm835.02 -1167.59c30.4,-30.4 46.49,-69.74 46.49,-118.01 0,-48.28 -16.09,-87.62 -46.49,-118.01 -30.4,-30.4 -71.52,-44.7 -119.8,-44.7 -48.28,0 -89.4,14.3 -119.8,44.7 -32.19,30.4 -48.28,69.74 -48.28,118.01 0,48.28 16.09,87.62 48.28,118.01 30.4,30.4 71.52,46.49 119.8,46.49 48.28,0 89.4,-16.09 119.8,-46.49zm-121.59 1167.59c60.8,0 109.08,-10.73 143.04,-30.4l0 -906.54c-35.76,-19.67 -84.04,-28.6 -143.04,-28.6 -55.43,0 -103.7,8.94 -141.25,28.6l0 906.54c37.55,19.67 84.04,30.4 141.25,30.4z"/>
 </g>
</svg>
